<svg preserveAspectRatio="none" overflow="visible" style="display: block;" width="13.4208" height="12.9435" viewBox="0 0 13.4208 12.9435" fill="none" xmlns="http://www.w3.org/2000/svg">
<path id="Vector" d="M11.2708 0.740475C8.24461 0.419508 5.19294 0.419843 2.16681 0.741475C0.902812 0.873475 0.106813 2.16148 0.708813 3.28148C1.67581 5.08348 3.05581 6.75448 4.99081 8.01148V11.4435C4.9908 11.6094 5.0321 11.7728 5.11097 11.9188C5.18984 12.0648 5.30382 12.1889 5.44261 12.2799C5.58141 12.3708 5.74067 12.4259 5.90602 12.4399C6.07138 12.454 6.23764 12.4267 6.38981 12.3605L7.84481 11.7295C8.02375 11.6518 8.17608 11.5236 8.28304 11.3605C8.39001 11.1974 8.44693 11.0065 8.44681 10.8115V8.01148C10.3818 6.75448 11.7618 5.08348 12.7298 3.28148C13.3298 2.16148 12.4248 0.861475 11.2698 0.741475L11.2708 0.740475Z" stroke="#AC9AB8" stroke-linecap="round" stroke-linejoin="round"/>
</svg>
