<svg preserveAspectRatio="none" overflow="visible" style="display: block;" width="11.6667" height="11.6639" viewBox="0 0 11.6667 11.6639" fill="none" xmlns="http://www.w3.org/2000/svg">
<g id="Vector">
<mask id="path-1-inside-1_0_45" fill="white">
<path d="M4.1198 0.891274H0.447052C0.328495 0.891274 0.214795 0.844144 0.130963 0.760312C0.0471303 0.676479 0 0.562779 0 0.444222C0.000728891 0.326144 0.0481523 0.213189 0.131906 0.129952C0.215659 0.0467157 0.328971 -2.24961e-06 0.447052 0H4.1198C4.23788 -2.24961e-06 4.35113 0.0467157 4.43488 0.129952C4.51863 0.213189 4.56606 0.326144 4.56679 0.444222C4.56679 0.562779 4.51972 0.676479 4.43589 0.760312C4.35206 0.844144 4.23836 0.891274 4.1198 0.891274Z"/>
<path d="M4.1198 4.6274H0.447052C0.328495 4.6274 0.214795 4.58034 0.130963 4.4965C0.0471303 4.41267 0 4.29897 0 4.18041C0.000728891 4.06234 0.0481523 3.94931 0.131906 3.86608C0.215659 3.78284 0.328971 3.73612 0.447052 3.73612H4.1198C4.23788 3.73612 4.35113 3.78284 4.43488 3.86608C4.51863 3.94931 4.56606 4.06234 4.56679 4.18041C4.56679 4.29897 4.51972 4.41267 4.43589 4.4965C4.35206 4.58034 4.23836 4.6274 4.1198 4.6274Z"/>
<path d="M3.61481 4.62743C3.55601 4.62779 3.49769 4.61648 3.44329 4.59415C3.38889 4.57181 3.3395 4.53892 3.29791 4.49734C3.25633 4.45576 3.22337 4.40636 3.20104 4.35196C3.1787 4.29756 3.16739 4.23925 3.16776 4.18044C3.16776 2.75936 2.71799 2.75939 2.28201 2.75939C1.45419 2.75939 0.507746 2.49721 0.507746 0.444231C0.507746 0.326406 0.554586 0.213411 0.637901 0.130096C0.721216 0.0467806 0.834211 8.57909e-06 0.952036 8.57909e-06C1.01061 -0.000355235 1.06866 0.0108554 1.12288 0.0330186C1.1771 0.0551818 1.22638 0.0877954 1.26792 0.129085C1.30947 0.170375 1.34243 0.219508 1.36493 0.273589C1.38743 0.32767 1.39902 0.385657 1.39902 0.444231C1.39902 1.86807 1.84879 1.86805 2.28201 1.86805C3.10982 1.86805 4.0591 2.14402 4.0591 4.18044C4.05946 4.23902 4.04819 4.29707 4.02602 4.35129C4.00386 4.40551 3.97125 4.45478 3.92996 4.49633C3.88867 4.53788 3.83953 4.57091 3.78545 4.59341C3.73137 4.6159 3.67338 4.62743 3.61481 4.62743Z"/>
<path d="M0.952045 4.62743C0.893471 4.62743 0.835416 4.6159 0.781335 4.59341C0.727254 4.57091 0.678188 4.53788 0.636899 4.49633C0.595609 4.45478 0.562928 4.40551 0.540765 4.35129C0.518602 4.29707 0.507391 4.23902 0.507755 4.18044C0.507755 2.13022 1.45695 1.86805 2.28201 1.86805C2.71799 1.86805 3.16777 1.86807 3.16777 0.444231C3.16777 0.385657 3.17936 0.32767 3.20186 0.273589C3.22435 0.219508 3.25732 0.170375 3.29887 0.129085C3.34041 0.0877954 3.38976 0.0551818 3.44397 0.0330186C3.49819 0.0108554 3.55625 -0.000355235 3.61482 8.57909e-06C3.73264 8.57909e-06 3.84564 0.0467806 3.92896 0.130096C4.01227 0.213411 4.05911 0.326406 4.05911 0.444231C4.05911 2.49721 3.10982 2.75939 2.28201 2.75939C1.84879 2.75939 1.39903 2.75936 1.39903 4.18044C1.3994 4.23925 1.38808 4.29756 1.36575 4.35196C1.34341 4.40636 1.31052 4.45576 1.26894 4.49734C1.22736 4.53892 1.1779 4.57181 1.1235 4.59415C1.0691 4.61648 1.01085 4.62779 0.952045 4.62743Z"/>
<path d="M7.94704 3.08772C7.82896 3.08772 7.71571 3.041 7.63196 2.95776C7.54821 2.87453 7.50078 2.7615 7.50006 2.64343V0.894022C7.50006 0.775465 7.54712 0.661766 7.63095 0.577933C7.71478 0.494101 7.82848 0.446971 7.94704 0.446971C8.0656 0.446971 8.1793 0.494101 8.26313 0.577933C8.34696 0.661766 8.39409 0.775465 8.39409 0.894022V2.65724C8.38981 2.7729 8.34077 2.8824 8.2574 2.96268C8.17403 3.04297 8.06278 3.0878 7.94704 3.08772Z"/>
<path d="M9.54196 3.08772C9.48339 3.08809 9.42533 3.07688 9.37111 3.05471C9.3169 3.03255 9.26755 2.99987 9.226 2.95858C9.18446 2.91729 9.15149 2.86816 9.12899 2.81408C9.1065 2.76 9.09497 2.70201 9.09497 2.64344V0.894031C9.09461 0.835225 9.10592 0.776913 9.12825 0.722513C9.15059 0.668112 9.18348 0.618649 9.22506 0.577066C9.26664 0.535483 9.31604 0.502594 9.37044 0.480259C9.42484 0.457924 9.48315 0.446613 9.54196 0.446979C9.60053 0.446978 9.65852 0.458569 9.7126 0.481067C9.76668 0.503566 9.81581 0.536531 9.8571 0.578077C9.89839 0.619623 9.93101 0.6689 9.95317 0.723119C9.97533 0.777338 9.98661 0.835458 9.98625 0.894031V2.65725C9.98266 2.77266 9.93424 2.88213 9.85131 2.96249C9.76838 3.04284 9.65743 3.08778 9.54196 3.08772Z"/>
<path d="M11.2197 7.19087H6.25281C6.13473 7.19014 6.02171 7.14272 5.93847 7.05896C5.85523 6.97521 5.80852 6.86197 5.80852 6.74389V1.79081C5.80852 1.67273 5.85523 1.55942 5.93847 1.47567C6.02171 1.39191 6.13473 1.34449 6.25281 1.34376H11.2197C11.338 1.34448 11.4513 1.39179 11.535 1.47546C11.6186 1.55914 11.666 1.67248 11.6667 1.79081V6.74389C11.666 6.86222 11.6186 6.97549 11.535 7.05917C11.4513 7.14284 11.338 7.19015 11.2197 7.19087ZM6.7136 6.29683H10.7726V2.2378H6.71636L6.7136 6.29683Z"/>
<path d="M9.42887 4.35424H8.19268C8.07412 4.35424 7.96042 4.30718 7.87659 4.22334C7.79275 4.13951 7.74562 4.02581 7.74562 3.90726C7.74526 3.84845 7.75657 3.79014 7.7789 3.73574C7.80124 3.68134 7.83413 3.63194 7.87571 3.59036C7.91729 3.54878 7.96676 3.51582 8.02116 3.49348C8.07556 3.47115 8.13387 3.45984 8.19268 3.4602H9.42887C9.54743 3.4602 9.66113 3.50733 9.74496 3.59117C9.82879 3.675 9.87586 3.7887 9.87586 3.90726C9.87513 4.02559 9.82783 4.13886 9.74415 4.22254C9.66048 4.30621 9.54721 4.35352 9.42887 4.35424Z"/>
<path d="M8.43545 5.83328C8.34671 5.83357 8.26005 5.80659 8.18714 5.75601C8.13837 5.72325 8.09649 5.68121 8.06399 5.63226C8.03149 5.58331 8.00898 5.52844 7.9977 5.47078C7.98642 5.41311 7.98664 5.35375 7.9983 5.29616C8.00997 5.23857 8.03284 5.18388 8.06567 5.13515L9.05631 3.65886C9.12254 3.5605 9.22494 3.49234 9.34121 3.46908C9.45748 3.44583 9.57821 3.46938 9.67717 3.5347C9.72595 3.56746 9.76775 3.60957 9.80025 3.65852C9.83276 3.70747 9.85534 3.76234 9.86661 3.82C9.87789 3.87766 9.87768 3.93696 9.86601 3.99455C9.85434 4.05213 9.83141 4.10683 9.79857 4.15556L8.80524 5.63461C8.76458 5.69547 8.70957 5.74542 8.6451 5.78006C8.58063 5.8147 8.50864 5.83297 8.43545 5.83328Z"/>
<path d="M5.03587 11.6638H2.11096C1.89373 11.6641 1.6789 11.618 1.48094 11.5285C1.28298 11.439 1.1064 11.3083 0.96302 11.1451C0.818578 10.9828 0.71065 10.7915 0.646392 10.5839C0.582134 10.3764 0.563077 10.1575 0.590544 9.94198C0.64427 9.51896 0.798463 9.11494 1.04029 8.76372L2.18824 7.10809L1.80464 5.97402C1.77925 5.90089 1.77354 5.82236 1.78807 5.74632C1.8026 5.67028 1.83687 5.5994 1.88744 5.54078C1.93756 5.48215 2.00208 5.43756 2.07465 5.41144C2.14723 5.38531 2.22535 5.37853 2.30135 5.39177C2.85644 5.49335 3.41645 5.56612 3.97907 5.60977C4.2332 5.60376 4.48322 5.54457 4.71304 5.43596C4.7925 5.39441 4.8826 5.37773 4.97167 5.38806C5.06073 5.39839 5.14467 5.43526 5.21251 5.4939C5.28039 5.55305 5.32884 5.63135 5.35149 5.7185C5.37413 5.80565 5.36992 5.89759 5.33943 5.98231L4.93657 7.11085L6.09549 8.76648C6.34196 9.11807 6.49914 9.52436 6.55353 9.95027C6.58105 10.166 6.56231 10.3851 6.49856 10.593C6.4348 10.8009 6.32753 10.9929 6.18381 11.1561C6.03942 11.3173 5.86239 11.4459 5.66448 11.5335C5.46657 11.621 5.25227 11.6654 5.03587 11.6638ZM2.88637 6.38793L3.10706 7.03641C3.12928 7.10254 3.13566 7.17292 3.12559 7.24195C3.11552 7.31098 3.08931 7.37672 3.04913 7.43375L1.77433 9.27147C1.61651 9.5022 1.51533 9.76693 1.47906 10.0441C1.46566 10.1353 1.47256 10.2284 1.49927 10.3166C1.52598 10.4049 1.57186 10.4861 1.6336 10.5546C1.69255 10.6235 1.76579 10.6786 1.84823 10.7162C1.93067 10.7539 2.02033 10.7731 2.11096 10.7726H5.03587C5.1265 10.7731 5.21616 10.7539 5.2986 10.7162C5.38105 10.6786 5.45429 10.6235 5.51324 10.5546C5.5743 10.4874 5.61985 10.4075 5.64656 10.3207C5.67326 10.2339 5.6805 10.1423 5.66778 10.0524C5.63113 9.77141 5.52702 9.50345 5.36429 9.27147L4.07285 7.43651C4.03156 7.37786 4.00498 7.31013 3.99537 7.23905C3.98577 7.16798 3.99343 7.09563 4.01767 7.02813L4.21081 6.47625C4.13361 6.48051 4.05627 6.48051 3.97907 6.47625C3.61342 6.4682 3.24857 6.4387 2.88637 6.38793Z"/>
<path d="M6.77155 1.19753C6.72176 1.19735 6.67234 1.189 6.62529 1.17274C6.1751 1.01817 5.70232 0.939802 5.22633 0.940924C5.10778 0.940924 4.99408 0.893794 4.91024 0.809962C4.82641 0.726129 4.77928 0.612429 4.77928 0.493873C4.78001 0.375794 4.82743 0.262839 4.91119 0.179602C4.99494 0.0963659 5.10825 0.0496478 5.22633 0.0496501C5.80059 0.0481262 6.37113 0.141358 6.91504 0.325588C7.02653 0.365035 7.11798 0.446769 7.16962 0.553156C7.22127 0.659543 7.22895 0.782038 7.19098 0.894036C7.16085 0.981676 7.10437 1.05784 7.02929 1.11217C6.95422 1.1665 6.86421 1.19631 6.77155 1.19753Z"/>
<path d="M1.02648 8.00493C0.946336 8.00523 0.867626 7.98389 0.798645 7.94309C0.729664 7.90228 0.673002 7.84357 0.634672 7.77319C0.217582 7.00696 -0.000642561 6.14833 1.42117e-06 5.27593C1.42117e-06 5.15738 0.0471316 5.04368 0.130964 4.95984C0.214796 4.87601 0.328496 4.82895 0.447053 4.82895C0.56561 4.82895 0.679309 4.87601 0.763141 4.95984C0.846974 5.04368 0.894038 5.15738 0.894038 5.27593C0.894471 5.99858 1.07468 6.70978 1.41836 7.34547C1.44646 7.39688 1.46411 7.45334 1.4703 7.5116C1.47649 7.56986 1.47107 7.62877 1.4544 7.68493C1.43773 7.7411 1.41013 7.79342 1.37316 7.83887C1.33618 7.88432 1.29056 7.922 1.23896 7.94976C1.17424 7.98657 1.10093 8.00559 1.02648 8.00493Z"/>
<path d="M7.19369 10.0827C7.10607 10.0818 7.02068 10.0552 6.94807 10.0061C6.87546 9.95709 6.81884 9.88777 6.78531 9.80681C6.76091 9.7534 6.74732 9.69572 6.74536 9.63704C6.7434 9.57836 6.75314 9.51989 6.77392 9.46498C6.79471 9.41007 6.82616 9.35979 6.86648 9.31711C6.90681 9.27444 6.95519 9.2402 7.00883 9.21633C7.7912 8.86507 8.45113 8.28867 8.90449 7.5607C8.93546 7.51085 8.97603 7.46761 9.0238 7.43351C9.07157 7.39942 9.12564 7.37512 9.18285 7.36204C9.24007 7.34895 9.29929 7.34731 9.35714 7.35725C9.41498 7.36719 9.47026 7.38853 9.51983 7.41997C9.62041 7.48259 9.69206 7.58255 9.71897 7.69793C9.74587 7.81331 9.72583 7.93466 9.66332 8.03531C9.1159 8.91343 8.3196 9.60885 7.37578 10.0331C7.31954 10.063 7.25734 10.08 7.19369 10.0827Z"/>
</mask>
<path d="M4.1198 0.891274H0.447052C0.328495 0.891274 0.214795 0.844144 0.130963 0.760312C0.0471303 0.676479 0 0.562779 0 0.444222C0.000728891 0.326144 0.0481523 0.213189 0.131906 0.129952C0.215659 0.0467157 0.328971 -2.24961e-06 0.447052 0H4.1198C4.23788 -2.24961e-06 4.35113 0.0467157 4.43488 0.129952C4.51863 0.213189 4.56606 0.326144 4.56679 0.444222C4.56679 0.562779 4.51972 0.676479 4.43589 0.760312C4.35206 0.844144 4.23836 0.891274 4.1198 0.891274Z" fill="#143F93"/>
<path d="M4.1198 4.6274H0.447052C0.328495 4.6274 0.214795 4.58034 0.130963 4.4965C0.0471303 4.41267 0 4.29897 0 4.18041C0.000728891 4.06234 0.0481523 3.94931 0.131906 3.86608C0.215659 3.78284 0.328971 3.73612 0.447052 3.73612H4.1198C4.23788 3.73612 4.35113 3.78284 4.43488 3.86608C4.51863 3.94931 4.56606 4.06234 4.56679 4.18041C4.56679 4.29897 4.51972 4.41267 4.43589 4.4965C4.35206 4.58034 4.23836 4.6274 4.1198 4.6274Z" fill="#143F93"/>
<path d="M3.61481 4.62743C3.55601 4.62779 3.49769 4.61648 3.44329 4.59415C3.38889 4.57181 3.3395 4.53892 3.29791 4.49734C3.25633 4.45576 3.22337 4.40636 3.20104 4.35196C3.1787 4.29756 3.16739 4.23925 3.16776 4.18044C3.16776 2.75936 2.71799 2.75939 2.28201 2.75939C1.45419 2.75939 0.507746 2.49721 0.507746 0.444231C0.507746 0.326406 0.554586 0.213411 0.637901 0.130096C0.721216 0.0467806 0.834211 8.57909e-06 0.952036 8.57909e-06C1.01061 -0.000355235 1.06866 0.0108554 1.12288 0.0330186C1.1771 0.0551818 1.22638 0.0877954 1.26792 0.129085C1.30947 0.170375 1.34243 0.219508 1.36493 0.273589C1.38743 0.32767 1.39902 0.385657 1.39902 0.444231C1.39902 1.86807 1.84879 1.86805 2.28201 1.86805C3.10982 1.86805 4.0591 2.14402 4.0591 4.18044C4.05946 4.23902 4.04819 4.29707 4.02602 4.35129C4.00386 4.40551 3.97125 4.45478 3.92996 4.49633C3.88867 4.53788 3.83953 4.57091 3.78545 4.59341C3.73137 4.6159 3.67338 4.62743 3.61481 4.62743Z" fill="#143F93"/>
<path d="M0.952045 4.62743C0.893471 4.62743 0.835416 4.6159 0.781335 4.59341C0.727254 4.57091 0.678188 4.53788 0.636899 4.49633C0.595609 4.45478 0.562928 4.40551 0.540765 4.35129C0.518602 4.29707 0.507391 4.23902 0.507755 4.18044C0.507755 2.13022 1.45695 1.86805 2.28201 1.86805C2.71799 1.86805 3.16777 1.86807 3.16777 0.444231C3.16777 0.385657 3.17936 0.32767 3.20186 0.273589C3.22435 0.219508 3.25732 0.170375 3.29887 0.129085C3.34041 0.0877954 3.38976 0.0551818 3.44397 0.0330186C3.49819 0.0108554 3.55625 -0.000355235 3.61482 8.57909e-06C3.73264 8.57909e-06 3.84564 0.0467806 3.92896 0.130096C4.01227 0.213411 4.05911 0.326406 4.05911 0.444231C4.05911 2.49721 3.10982 2.75939 2.28201 2.75939C1.84879 2.75939 1.39903 2.75936 1.39903 4.18044C1.3994 4.23925 1.38808 4.29756 1.36575 4.35196C1.34341 4.40636 1.31052 4.45576 1.26894 4.49734C1.22736 4.53892 1.1779 4.57181 1.1235 4.59415C1.0691 4.61648 1.01085 4.62779 0.952045 4.62743Z" fill="#143F93"/>
<path d="M7.94704 3.08772C7.82896 3.08772 7.71571 3.041 7.63196 2.95776C7.54821 2.87453 7.50078 2.7615 7.50006 2.64343V0.894022C7.50006 0.775465 7.54712 0.661766 7.63095 0.577933C7.71478 0.494101 7.82848 0.446971 7.94704 0.446971C8.0656 0.446971 8.1793 0.494101 8.26313 0.577933C8.34696 0.661766 8.39409 0.775465 8.39409 0.894022V2.65724C8.38981 2.7729 8.34077 2.8824 8.2574 2.96268C8.17403 3.04297 8.06278 3.0878 7.94704 3.08772Z" fill="#143F93"/>
<path d="M9.54196 3.08772C9.48339 3.08809 9.42533 3.07688 9.37111 3.05471C9.3169 3.03255 9.26755 2.99987 9.226 2.95858C9.18446 2.91729 9.15149 2.86816 9.12899 2.81408C9.1065 2.76 9.09497 2.70201 9.09497 2.64344V0.894031C9.09461 0.835225 9.10592 0.776913 9.12825 0.722513C9.15059 0.668112 9.18348 0.618649 9.22506 0.577066C9.26664 0.535483 9.31604 0.502594 9.37044 0.480259C9.42484 0.457924 9.48315 0.446613 9.54196 0.446979C9.60053 0.446978 9.65852 0.458569 9.7126 0.481067C9.76668 0.503566 9.81581 0.536531 9.8571 0.578077C9.89839 0.619623 9.93101 0.6689 9.95317 0.723119C9.97533 0.777338 9.98661 0.835458 9.98625 0.894031V2.65725C9.98266 2.77266 9.93424 2.88213 9.85131 2.96249C9.76838 3.04284 9.65743 3.08778 9.54196 3.08772Z" fill="#143F93"/>
<path d="M11.2197 7.19087H6.25281C6.13473 7.19014 6.02171 7.14272 5.93847 7.05896C5.85523 6.97521 5.80852 6.86197 5.80852 6.74389V1.79081C5.80852 1.67273 5.85523 1.55942 5.93847 1.47567C6.02171 1.39191 6.13473 1.34449 6.25281 1.34376H11.2197C11.338 1.34448 11.4513 1.39179 11.535 1.47546C11.6186 1.55914 11.666 1.67248 11.6667 1.79081V6.74389C11.666 6.86222 11.6186 6.97549 11.535 7.05917C11.4513 7.14284 11.338 7.19015 11.2197 7.19087ZM6.7136 6.29683H10.7726V2.2378H6.71636L6.7136 6.29683Z" fill="#143F93"/>
<path d="M9.42887 4.35424H8.19268C8.07412 4.35424 7.96042 4.30718 7.87659 4.22334C7.79275 4.13951 7.74562 4.02581 7.74562 3.90726C7.74526 3.84845 7.75657 3.79014 7.7789 3.73574C7.80124 3.68134 7.83413 3.63194 7.87571 3.59036C7.91729 3.54878 7.96676 3.51582 8.02116 3.49348C8.07556 3.47115 8.13387 3.45984 8.19268 3.4602H9.42887C9.54743 3.4602 9.66113 3.50733 9.74496 3.59117C9.82879 3.675 9.87586 3.7887 9.87586 3.90726C9.87513 4.02559 9.82783 4.13886 9.74415 4.22254C9.66048 4.30621 9.54721 4.35352 9.42887 4.35424Z" fill="#143F93"/>
<path d="M8.43545 5.83328C8.34671 5.83357 8.26005 5.80659 8.18714 5.75601C8.13837 5.72325 8.09649 5.68121 8.06399 5.63226C8.03149 5.58331 8.00898 5.52844 7.9977 5.47078C7.98642 5.41311 7.98664 5.35375 7.9983 5.29616C8.00997 5.23857 8.03284 5.18388 8.06567 5.13515L9.05631 3.65886C9.12254 3.5605 9.22494 3.49234 9.34121 3.46908C9.45748 3.44583 9.57821 3.46938 9.67717 3.5347C9.72595 3.56746 9.76775 3.60957 9.80025 3.65852C9.83276 3.70747 9.85534 3.76234 9.86661 3.82C9.87789 3.87766 9.87768 3.93696 9.86601 3.99455C9.85434 4.05213 9.83141 4.10683 9.79857 4.15556L8.80524 5.63461C8.76458 5.69547 8.70957 5.74542 8.6451 5.78006C8.58063 5.8147 8.50864 5.83297 8.43545 5.83328Z" fill="#143F93"/>
<path d="M5.03587 11.6638H2.11096C1.89373 11.6641 1.6789 11.618 1.48094 11.5285C1.28298 11.439 1.1064 11.3083 0.96302 11.1451C0.818578 10.9828 0.71065 10.7915 0.646392 10.5839C0.582134 10.3764 0.563077 10.1575 0.590544 9.94198C0.64427 9.51896 0.798463 9.11494 1.04029 8.76372L2.18824 7.10809L1.80464 5.97402C1.77925 5.90089 1.77354 5.82236 1.78807 5.74632C1.8026 5.67028 1.83687 5.5994 1.88744 5.54078C1.93756 5.48215 2.00208 5.43756 2.07465 5.41144C2.14723 5.38531 2.22535 5.37853 2.30135 5.39177C2.85644 5.49335 3.41645 5.56612 3.97907 5.60977C4.2332 5.60376 4.48322 5.54457 4.71304 5.43596C4.7925 5.39441 4.8826 5.37773 4.97167 5.38806C5.06073 5.39839 5.14467 5.43526 5.21251 5.4939C5.28039 5.55305 5.32884 5.63135 5.35149 5.7185C5.37413 5.80565 5.36992 5.89759 5.33943 5.98231L4.93657 7.11085L6.09549 8.76648C6.34196 9.11807 6.49914 9.52436 6.55353 9.95027C6.58105 10.166 6.56231 10.3851 6.49856 10.593C6.4348 10.8009 6.32753 10.9929 6.18381 11.1561C6.03942 11.3173 5.86239 11.4459 5.66448 11.5335C5.46657 11.621 5.25227 11.6654 5.03587 11.6638ZM2.88637 6.38793L3.10706 7.03641C3.12928 7.10254 3.13566 7.17292 3.12559 7.24195C3.11552 7.31098 3.08931 7.37672 3.04913 7.43375L1.77433 9.27147C1.61651 9.5022 1.51533 9.76693 1.47906 10.0441C1.46566 10.1353 1.47256 10.2284 1.49927 10.3166C1.52598 10.4049 1.57186 10.4861 1.6336 10.5546C1.69255 10.6235 1.76579 10.6786 1.84823 10.7162C1.93067 10.7539 2.02033 10.7731 2.11096 10.7726H5.03587C5.1265 10.7731 5.21616 10.7539 5.2986 10.7162C5.38105 10.6786 5.45429 10.6235 5.51324 10.5546C5.5743 10.4874 5.61985 10.4075 5.64656 10.3207C5.67326 10.2339 5.6805 10.1423 5.66778 10.0524C5.63113 9.77141 5.52702 9.50345 5.36429 9.27147L4.07285 7.43651C4.03156 7.37786 4.00498 7.31013 3.99537 7.23905C3.98577 7.16798 3.99343 7.09563 4.01767 7.02813L4.21081 6.47625C4.13361 6.48051 4.05627 6.48051 3.97907 6.47625C3.61342 6.4682 3.24857 6.4387 2.88637 6.38793Z" fill="#143F93"/>
<path d="M6.77155 1.19753C6.72176 1.19735 6.67234 1.189 6.62529 1.17274C6.1751 1.01817 5.70232 0.939802 5.22633 0.940924C5.10778 0.940924 4.99408 0.893794 4.91024 0.809962C4.82641 0.726129 4.77928 0.612429 4.77928 0.493873C4.78001 0.375794 4.82743 0.262839 4.91119 0.179602C4.99494 0.0963659 5.10825 0.0496478 5.22633 0.0496501C5.80059 0.0481262 6.37113 0.141358 6.91504 0.325588C7.02653 0.365035 7.11798 0.446769 7.16962 0.553156C7.22127 0.659543 7.22895 0.782038 7.19098 0.894036C7.16085 0.981676 7.10437 1.05784 7.02929 1.11217C6.95422 1.1665 6.86421 1.19631 6.77155 1.19753Z" fill="#143F93"/>
<path d="M1.02648 8.00493C0.946336 8.00523 0.867626 7.98389 0.798645 7.94309C0.729664 7.90228 0.673002 7.84357 0.634672 7.77319C0.217582 7.00696 -0.000642561 6.14833 1.42117e-06 5.27593C1.42117e-06 5.15738 0.0471316 5.04368 0.130964 4.95984C0.214796 4.87601 0.328496 4.82895 0.447053 4.82895C0.56561 4.82895 0.679309 4.87601 0.763141 4.95984C0.846974 5.04368 0.894038 5.15738 0.894038 5.27593C0.894471 5.99858 1.07468 6.70978 1.41836 7.34547C1.44646 7.39688 1.46411 7.45334 1.4703 7.5116C1.47649 7.56986 1.47107 7.62877 1.4544 7.68493C1.43773 7.7411 1.41013 7.79342 1.37316 7.83887C1.33618 7.88432 1.29056 7.922 1.23896 7.94976C1.17424 7.98657 1.10093 8.00559 1.02648 8.00493Z" fill="#143F93"/>
<path d="M7.19369 10.0827C7.10607 10.0818 7.02068 10.0552 6.94807 10.0061C6.87546 9.95709 6.81884 9.88777 6.78531 9.80681C6.76091 9.7534 6.74732 9.69572 6.74536 9.63704C6.7434 9.57836 6.75314 9.51989 6.77392 9.46498C6.79471 9.41007 6.82616 9.35979 6.86648 9.31711C6.90681 9.27444 6.95519 9.2402 7.00883 9.21633C7.7912 8.86507 8.45113 8.28867 8.90449 7.5607C8.93546 7.51085 8.97603 7.46761 9.0238 7.43351C9.07157 7.39942 9.12564 7.37512 9.18285 7.36204C9.24007 7.34895 9.29929 7.34731 9.35714 7.35725C9.41498 7.36719 9.47026 7.38853 9.51983 7.41997C9.62041 7.48259 9.69206 7.58255 9.71897 7.69793C9.74587 7.81331 9.72583 7.93466 9.66332 8.03531C9.1159 8.91343 8.3196 9.60885 7.37578 10.0331C7.31954 10.063 7.25734 10.08 7.19369 10.0827Z" fill="#143F93"/>
<path d="M0.447052 0.891274V-0.108726V0.891274ZM0 0.444222L-1 0.43805V0.444222H0ZM0.447052 0L0.447033 1H0.447052V0ZM4.1198 0V1H4.11982L4.1198 0ZM4.56679 0.444222H5.56681L5.56677 0.43805L4.56679 0.444222ZM0.447052 4.6274V3.6274V4.6274ZM0 4.18041L-1 4.17424V4.18041H0ZM0.447052 3.73612L0.447033 4.73612H0.447052V3.73612ZM4.1198 3.73612V4.73612H4.11982L4.1198 3.73612ZM4.56679 4.18041H5.56681L5.56677 4.17424L4.56679 4.18041ZM3.61481 4.62743L3.61483 3.62741L3.60858 3.62745L3.61481 4.62743ZM3.16776 4.18044L4.16776 4.18667V4.18044H3.16776ZM0.952036 8.57909e-06V1.00003L0.958247 0.999989L0.952036 8.57909e-06ZM1.39902 0.444231L0.399021 0.444212V0.444231H1.39902ZM4.0591 4.18044H3.05908L3.05912 4.18665L4.0591 4.18044ZM0.952045 4.62743L0.958275 3.62743H0.952025L0.952045 4.62743ZM0.507755 4.18044L1.50775 4.18665V4.18044H0.507755ZM3.16777 0.444231H4.16777V0.444212L3.16777 0.444231ZM3.61482 8.57909e-06L3.60861 1.00001H3.61482V8.57909e-06ZM3.92896 0.130096L3.22185 0.837202L3.92896 0.130096ZM4.05911 0.444231H3.05911H4.05911ZM1.39903 4.18044H0.39901L0.399048 4.18667L1.39903 4.18044ZM7.94704 3.08772L7.94773 2.08772H7.94702L7.94704 3.08772ZM7.50006 2.64343H6.50004L6.50007 2.6496L7.50006 2.64343ZM7.50006 0.894022H8.50006H7.50006ZM8.39409 2.65724L9.39341 2.69427L9.39409 2.67576V2.65724H8.39409ZM9.54196 3.08772L9.54244 2.0877L9.53575 2.08774L9.54196 3.08772ZM9.09497 2.64344L10.095 2.64345V2.64344H9.09497ZM9.09497 0.894031H10.095L10.095 0.8878L9.09497 0.894031ZM9.54196 0.446979L9.53573 1.44698L9.54198 1.44698L9.54196 0.446979ZM9.98625 0.894031L8.98625 0.88782V0.894031H9.98625ZM9.98625 2.65725L10.9858 2.6883L10.9862 2.67278V2.65725H9.98625ZM11.2197 7.19087V8.19089L11.2258 8.19085L11.2197 7.19087ZM6.25281 7.19087L6.24663 8.19087H6.25281V7.19087ZM5.80852 6.74389L6.80852 6.74391V6.74389H5.80852ZM5.80852 1.79081H6.80852V1.79079L5.80852 1.79081ZM6.25281 1.34376V0.343741L6.24663 0.343779L6.25281 1.34376ZM11.2197 1.34376L11.2258 0.34376H11.2197V1.34376ZM11.6667 1.79081H12.6667L12.6667 1.7847L11.6667 1.79081ZM11.6667 6.74389L12.6667 6.75V6.74389H11.6667ZM6.7136 6.29683L5.7136 6.29615L5.71292 7.29683H6.7136V6.29683ZM10.7726 6.29683V7.29683H11.7726V6.29683H10.7726ZM10.7726 2.2378H11.7726V1.2378H10.7726V2.2378ZM6.71636 2.2378V1.2378H5.71704L5.71636 2.23712L6.71636 2.2378ZM9.42887 4.35424V5.35426L9.43499 5.35422L9.42887 4.35424ZM8.19268 4.35424V3.35424V4.35424ZM7.74562 3.90726H8.74564L8.7456 3.90103L7.74562 3.90726ZM8.19268 3.4602L8.18644 4.4602H8.19268V3.4602ZM9.42887 3.4602V2.4602V3.4602ZM9.87586 3.90726L10.8759 3.91337V3.90726H9.87586ZM8.43545 5.83328L8.43871 6.83328L8.43978 6.83327L8.43545 5.83328ZM8.18714 5.75601L8.75713 4.93436L8.751 4.93011L8.74481 4.92595L8.18714 5.75601ZM7.9977 5.47078L8.97911 5.27886L7.9977 5.47078ZM8.06567 5.13515L8.89496 5.69398L8.89605 5.69236L8.06567 5.13515ZM9.05631 3.65886L8.22682 3.10034L8.22594 3.10165L9.05631 3.65886ZM9.67717 3.5347L10.2349 2.70461L10.228 2.70011L9.67717 3.5347ZM9.86601 3.99455L8.88593 3.79595L9.86601 3.99455ZM9.79857 4.15556L8.96929 3.59673L8.96842 3.59802L9.79857 4.15556ZM8.80524 5.63461L7.97508 5.07708L7.97375 5.07907L8.80524 5.63461ZM5.03587 11.6638L5.04329 10.6638H5.03587V11.6638ZM2.11096 11.6638V10.6638L2.10994 10.6638L2.11096 11.6638ZM0.96302 11.1451L1.71427 10.4851L1.70999 10.4802L0.96302 11.1451ZM0.590544 9.94198L1.58252 10.0684L1.58257 10.068L0.590544 9.94198ZM1.04029 8.76372L0.218499 8.19392L0.216648 8.19661L1.04029 8.76372ZM2.18824 7.10809L3.01002 7.67789L3.29675 7.26436L3.13551 6.78768L2.18824 7.10809ZM1.80464 5.97402L2.75195 5.6536L2.74931 5.646L1.80464 5.97402ZM1.88744 5.54078L2.64461 6.19401L2.64757 6.19056L1.88744 5.54078ZM2.30135 5.39177L2.48136 4.40807L2.47289 4.40659L2.30135 5.39177ZM3.97907 5.60977L3.90173 6.60677L3.95215 6.61068L4.0027 6.60949L3.97907 5.60977ZM4.71304 5.43596L5.14032 6.34008L5.15853 6.33147L5.17639 6.32214L4.71304 5.43596ZM5.21251 5.4939L5.86947 4.73996L5.86644 4.73735L5.21251 5.4939ZM5.33943 5.98231L4.39852 5.64364L4.39763 5.64612L5.33943 5.98231ZM4.93657 7.11085L3.99478 6.77466L3.82112 7.26114L4.11733 7.68431L4.93657 7.11085ZM6.09549 8.76648L5.27626 9.33994L5.27665 9.34049L6.09549 8.76648ZM6.55353 9.95027L7.54549 9.82373L7.54547 9.8236L6.55353 9.95027ZM6.18381 11.1561L6.92868 11.8234L6.93433 11.817L6.18381 11.1561ZM2.88637 6.38793L3.02518 5.39761L1.41625 5.17209L1.93969 6.71011L2.88637 6.38793ZM3.10706 7.03641L4.055 6.71794L4.05374 6.71423L3.10706 7.03641ZM3.04913 7.43375L2.23161 6.8578L2.22746 6.86377L3.04913 7.43375ZM1.77433 9.27147L0.952648 8.70148L0.948934 8.70691L1.77433 9.27147ZM1.47906 10.0441L2.46844 10.1894L2.46958 10.1817L2.4706 10.1739L1.47906 10.0441ZM1.6336 10.5546L2.39317 9.9042L2.38485 9.89448L2.37628 9.88498L1.6336 10.5546ZM2.11096 10.7726V9.77254L2.10505 9.77257L2.11096 10.7726ZM5.03587 10.7726L5.04178 9.77256H5.03587V10.7726ZM5.51324 10.5546L4.77309 9.88217L4.76322 9.89304L4.75366 9.9042L5.51324 10.5546ZM5.66778 10.0524L4.67612 10.1817L4.67763 10.1924L5.66778 10.0524ZM5.36429 9.27147L6.18293 8.69717L6.18206 8.69593L5.36429 9.27147ZM4.07285 7.43651L4.89062 6.86096L4.89055 6.86088L4.07285 7.43651ZM3.99537 7.23905L3.00438 7.37297L3.99537 7.23905ZM4.01767 7.02813L4.95887 7.36609L4.96154 7.35846L4.01767 7.02813ZM4.21081 6.47625L5.15468 6.80658L5.64853 5.39547L4.15577 5.47777L4.21081 6.47625ZM3.97907 6.47625L4.03412 5.47777L4.0176 5.47686L4.00107 5.47649L3.97907 6.47625ZM6.77155 1.19753L6.76798 2.19752L6.77635 2.19755L6.78472 2.19744L6.77155 1.19753ZM6.62529 1.17274L6.95203 0.227619L6.95003 0.226933L6.62529 1.17274ZM5.22633 0.940924V1.94093L5.22869 1.94092L5.22633 0.940924ZM4.77928 0.493873L3.77928 0.4877V0.493873H4.77928ZM5.22633 0.0496501L5.22631 1.04965L5.22899 1.04965L5.22633 0.0496501ZM6.91504 0.325588L7.24863 -0.617227L7.23585 -0.621554L6.91504 0.325588ZM7.19098 0.894036L8.13668 1.21911L8.13803 1.21511L7.19098 0.894036ZM1.02648 8.00493L1.03536 7.00489L1.02272 7.00494L1.02648 8.00493ZM0.634672 7.77319L-0.243635 8.25128L-0.24355 8.25144L0.634672 7.77319ZM1.42117e-06 5.27593L1 5.27667V5.27593H1.42117e-06ZM0.894038 5.27593H-0.105962L-0.105962 5.27653L0.894038 5.27593ZM1.41836 7.34547L0.538679 7.82106L0.540869 7.82507L1.41836 7.34547ZM1.23896 7.94976L0.765196 7.0691L0.754816 7.07469L0.744571 7.08052L1.23896 7.94976ZM7.19369 10.0827L7.18338 11.0827L7.21041 11.083L7.23742 11.0818L7.19369 10.0827ZM6.78531 9.80681L7.70919 9.42414L7.70233 9.40758L7.69489 9.39128L6.78531 9.80681ZM7.00883 9.21633L7.41531 10.13L7.41842 10.1286L7.00883 9.21633ZM8.90449 7.5607L9.75334 8.08934L9.75394 8.08838L8.90449 7.5607ZM9.51983 7.41997L8.98416 8.26444L8.99133 8.2689L9.51983 7.41997ZM9.66332 8.03531L10.5119 8.56433L10.5128 8.56292L9.66332 8.03531ZM7.37578 10.0331L6.9658 9.121L6.93554 9.1346L6.90625 9.15018L7.37578 10.0331ZM4.1198 0.891274V-0.108726H0.447052V0.891274V1.89127H4.1198V0.891274ZM0.447052 0.891274V-0.108726C0.593908 -0.108726 0.734505 -0.0503598 0.83807 0.0532049L0.130963 0.760312L-0.576144 1.46742C-0.304915 1.73865 0.0630815 1.89127 0.447052 1.89127V0.891274ZM0.130963 0.760312L0.83807 0.0532049C0.941634 0.15677 1 0.297366 1 0.444222H0H-1C-1 0.828193 -0.847374 1.19619 -0.576144 1.46742L0.130963 0.760312ZM0 0.444222L0.999981 0.450395C0.999079 0.596585 0.94034 0.736364 0.83682 0.839245L0.131906 0.129952L-0.573008 -0.57934C-0.844035 -0.309986 -0.997621 0.055704 -0.999981 0.43805L0 0.444222ZM0.131906 0.129952L0.83682 0.839245C0.73317 0.942255 0.593041 1 0.447033 1L0.447052 0L0.447071 -1C0.0649023 -1.00001 -0.301851 -0.848824 -0.573008 -0.57934L0.131906 0.129952ZM0.447052 0V1H4.1198V0V-1H0.447052V0ZM4.1198 0L4.11982 1C3.97365 1 3.8335 0.942143 3.72997 0.839245L4.43488 0.129952L5.1398 -0.57934C4.86875 -0.848711 4.50211 -1.00001 4.11978 -1L4.1198 0ZM4.43488 0.129952L3.72997 0.839245C3.62645 0.736364 3.56771 0.596585 3.56681 0.450395L4.56679 0.444222L5.56677 0.43805C5.56441 0.055704 5.41082 -0.309986 5.1398 -0.57934L4.43488 0.129952ZM4.56679 0.444222H3.56679C3.56679 0.297751 3.62495 0.157042 3.72878 0.0532049L4.43589 0.760312L5.143 1.46742C5.4145 1.19592 5.56679 0.827807 5.56679 0.444222H4.56679ZM4.43589 0.760312L3.72878 0.0532049C3.83235 -0.0503596 3.97295 -0.108726 4.1198 -0.108726V0.891274V1.89127C4.50377 1.89127 4.87177 1.73865 5.143 1.46742L4.43589 0.760312ZM4.1198 4.6274V3.6274H0.447052V4.6274V5.6274H4.1198V4.6274ZM0.447052 4.6274V3.6274C0.593523 3.6274 0.734232 3.68556 0.83807 3.7894L0.130963 4.4965L-0.576144 5.20361C-0.304642 5.47511 0.063467 5.6274 0.447052 5.6274V4.6274ZM0.130963 4.4965L0.83807 3.7894C0.941634 3.89296 1 4.03356 1 4.18041H0H-1C-1 4.56439 -0.847373 4.93238 -0.576144 5.20361L0.130963 4.4965ZM0 4.18041L0.999981 4.18659C0.99908 4.33261 0.940456 4.47237 0.83682 4.57537L0.131906 3.86608L-0.573008 3.15678C-0.844151 3.42625 -0.997622 3.79206 -0.999981 4.17424L0 4.18041ZM0.131906 3.86608L0.83682 4.57537C0.733168 4.67838 0.593039 4.73613 0.447033 4.73612L0.447052 3.73612L0.447071 2.73612C0.0649042 2.73612 -0.301849 2.8873 -0.573008 3.15678L0.131906 3.86608ZM0.447052 3.73612V4.73612H4.1198V3.73612V2.73612H0.447052V3.73612ZM4.1198 3.73612L4.11982 4.73612C3.97366 4.73613 3.83351 4.67827 3.72997 4.57537L4.43488 3.86608L5.1398 3.15678C4.86875 2.88741 4.50211 2.73612 4.11978 2.73612L4.1198 3.73612ZM4.43488 3.86608L3.72997 4.57537C3.62633 4.47237 3.56771 4.33261 3.56681 4.18659L4.56679 4.18041L5.56677 4.17424C5.56441 3.79206 5.41094 3.42625 5.1398 3.15678L4.43488 3.86608ZM4.56679 4.18041H3.56679C3.56679 4.03394 3.62495 3.89323 3.72878 3.7894L4.43589 4.4965L5.143 5.20361C5.4145 4.93211 5.56679 4.564 5.56679 4.18041H4.56679ZM4.43589 4.4965L3.72878 3.7894C3.83262 3.68556 3.97333 3.6274 4.1198 3.6274V4.6274V5.6274C4.50339 5.6274 4.8715 5.47511 5.143 5.20361L4.43589 4.4965ZM3.61481 4.62743L3.60858 3.62745C3.68208 3.62699 3.75499 3.64112 3.8231 3.66908L3.44329 4.59415L3.06349 5.51921C3.2404 5.59185 3.42993 5.6286 3.62104 5.62741L3.61481 4.62743ZM3.44329 4.59415L3.8231 3.66908C3.89111 3.697 3.95297 3.73818 4.00502 3.79023L3.29791 4.49734L2.59081 5.20445C2.72602 5.33966 2.88668 5.44662 3.06349 5.51921L3.44329 4.59415ZM3.29791 4.49734L4.00502 3.79023C4.05661 3.84182 4.09794 3.90355 4.12611 3.97216L3.20104 4.35196L2.27597 4.73176C2.34881 4.90918 2.45605 5.06969 2.59081 5.20445L3.29791 4.49734ZM3.20104 4.35196L4.12611 3.97216C4.15407 4.04026 4.1682 4.11317 4.16774 4.18667L3.16776 4.18044L2.16778 4.17421C2.16659 4.36533 2.20334 4.55486 2.27597 4.73176L3.20104 4.35196ZM3.16776 4.18044H4.16776C4.16776 3.4449 4.0691 2.73314 3.61707 2.25217C3.11097 1.71367 2.427 1.75939 2.28201 1.75939V2.75939V3.75939C2.34099 3.75939 2.36989 3.75961 2.39395 3.76085C2.41547 3.76195 2.41203 3.76309 2.39455 3.75934C2.37511 3.75517 2.33657 3.74465 2.28951 3.71997C2.24052 3.69429 2.19584 3.66032 2.15969 3.62185C2.08904 3.54669 2.09674 3.50442 2.11942 3.59693C2.14244 3.69089 2.16776 3.8703 2.16776 4.18044H3.16776ZM2.28201 2.75939V1.75939C1.94516 1.75939 1.82815 1.69874 1.77217 1.6457C1.71824 1.59461 1.50775 1.34449 1.50775 0.444231H0.507746H-0.492254C-0.492254 1.59695 -0.22952 2.50441 0.396728 3.09765C1.02092 3.68895 1.79104 3.75939 2.28201 3.75939V2.75939ZM0.507746 0.444231H1.50775C1.50775 0.591826 1.44909 0.733125 1.34501 0.837202L0.637901 0.130096L-0.0692061 -0.577011C-0.339914 -0.306304 -0.492254 0.0609863 -0.492254 0.444231H0.507746ZM0.637901 0.130096L1.34501 0.837202C1.24065 0.941555 1.09924 1.00001 0.952036 1.00001V8.57909e-06V-0.999991C0.56918 -0.999991 0.201776 -0.847994 -0.0692061 -0.577011L0.637901 0.130096ZM0.952036 8.57909e-06L0.958247 0.999989C0.885082 1.00044 0.812423 0.986434 0.744501 0.958669L1.12288 0.0330186L1.50126 -0.892632C1.3249 -0.964723 1.13614 -1.00115 0.945825 -0.999972L0.952036 8.57909e-06ZM1.12288 0.0330186L0.744501 0.958669C0.677011 0.931081 0.615236 0.890282 0.563009 0.838378L1.26792 0.129085L1.97284 -0.580208C1.83752 -0.714692 1.67719 -0.820717 1.50126 -0.892632L1.12288 0.0330186ZM1.26792 0.129085L0.563009 0.838378C0.510832 0.786523 0.469676 0.725077 0.441643 0.657693L1.36493 0.273589L2.28822 -0.110515C2.21519 -0.286061 2.10811 -0.445774 1.97284 -0.580208L1.26792 0.129085ZM1.36493 0.273589L0.441643 0.657693C0.413545 0.590152 0.399019 0.517603 0.399021 0.444212L1.39902 0.444231L2.39902 0.44425C2.39902 0.253711 2.36132 0.0651871 2.28822 -0.110515L1.36493 0.273589ZM1.39902 0.444231H0.399021C0.399021 1.18112 0.497724 1.89243 0.947995 2.37346C1.45359 2.91359 2.13732 2.86805 2.28201 2.86805V1.86805V0.868047C2.22336 0.868047 2.19492 0.867822 2.17133 0.866602C2.1503 0.865514 2.15423 0.864424 2.17221 0.868303C2.19216 0.872607 2.23105 0.883324 2.27833 0.908231C2.32752 0.934141 2.37215 0.968275 2.40812 1.0067C2.47828 1.08165 2.47029 1.12331 2.44747 1.02997C2.42434 0.935315 2.39902 0.755129 2.39902 0.444231H1.39902ZM2.28201 1.86805V2.86805C2.61159 2.86805 2.73294 2.92929 2.79247 2.98581C2.8496 3.04005 3.0591 3.2921 3.0591 4.18044H4.0591H5.0591C5.0591 3.03236 4.79396 2.12821 4.1695 1.53536C3.54744 0.944789 2.78024 0.868047 2.28201 0.868047V1.86805ZM4.0591 4.18044L3.05912 4.18665C3.05866 4.11272 3.0729 4.04011 3.10037 3.97291L4.02602 4.35129L4.95167 4.72967C5.02347 4.55402 5.06027 4.36531 5.05908 4.17423L4.0591 4.18044ZM4.02602 4.35129L3.10037 3.97291C3.12796 3.90542 3.16876 3.84364 3.22066 3.79142L3.92996 4.49633L4.63925 5.20124C4.77373 5.06592 4.87976 4.9056 4.95167 4.72967L4.02602 4.35129ZM3.92996 4.49633L3.22066 3.79142C3.27206 3.7397 3.33336 3.6984 3.40135 3.67012L3.78545 4.59341L4.16956 5.5167C4.34571 5.44342 4.50528 5.33605 4.63925 5.20124L3.92996 4.49633ZM3.78545 4.59341L3.40135 3.67012C3.4696 3.64172 3.54221 3.62743 3.61483 3.62743L3.61481 4.62743L3.61479 5.62743C3.80456 5.62743 3.99314 5.59009 4.16956 5.5167L3.78545 4.59341ZM0.952045 4.62743L0.952025 3.62743C1.02449 3.62743 1.09704 3.64166 1.16544 3.67012L0.781335 4.59341L0.397231 5.5167C0.573788 5.59015 0.762452 5.62743 0.952064 5.62743L0.952045 4.62743ZM0.781335 4.59341L1.16544 3.67012C1.23383 3.69857 1.29511 3.74001 1.34619 3.79142L0.636899 4.49633L-0.0723939 5.20124C0.0612696 5.33574 0.220678 5.44325 0.397231 5.5167L0.781335 4.59341ZM0.636899 4.49633L1.34619 3.79142C1.39763 3.84318 1.43858 3.90481 1.46642 3.97291L0.540765 4.35129L-0.384885 4.72967C-0.312723 4.9062 -0.206416 5.06639 -0.0723939 5.20124L0.636899 4.49633ZM0.540765 4.35129L1.46642 3.97291C1.49418 4.04083 1.50819 4.11349 1.50774 4.18665L0.507755 4.18044L-0.492226 4.17423C-0.493408 4.36454 -0.456976 4.55331 -0.384885 4.72967L0.540765 4.35129ZM0.507755 4.18044H1.50775C1.50775 3.28273 1.71837 3.03323 1.77245 2.9821C1.82917 2.92848 1.94707 2.86805 2.28201 2.86805V1.86805V0.868047C1.79189 0.868047 1.02267 0.938697 0.398521 1.52872C-0.228263 2.12124 -0.492245 3.02794 -0.492245 4.18044H0.507755ZM2.28201 1.86805V2.86805C2.42717 2.86805 3.11162 2.91378 3.61773 2.37422C4.06917 1.89295 4.16777 1.18089 4.16777 0.444231H3.16777H2.16777C2.16777 0.755158 2.14244 0.935244 2.11932 1.02977C2.09653 1.12292 2.08863 1.08099 2.15903 1.00594C2.19509 0.967493 2.23975 0.933456 2.28881 0.907685C2.33594 0.882926 2.3746 0.872346 2.39416 0.86814C2.41177 0.864355 2.41531 0.865484 2.39385 0.866589C2.36985 0.867824 2.341 0.868047 2.28201 0.868047V1.86805ZM3.16777 0.444231L4.16777 0.444212C4.16777 0.517601 4.15324 0.59015 4.12515 0.657693L3.20186 0.273589L2.27857 -0.110515C2.20547 0.0651889 2.16776 0.253713 2.16777 0.44425L3.16777 0.444231ZM3.20186 0.273589L4.12515 0.657693C4.09711 0.725078 4.05596 0.786524 4.00378 0.838378L3.29887 0.129085L2.59395 -0.580208C2.45868 -0.445774 2.3516 -0.286062 2.27857 -0.110515L3.20186 0.273589ZM3.29887 0.129085L4.00378 0.838378C3.95125 0.890587 3.88944 0.931245 3.82236 0.958669L3.44397 0.0330186L3.06559 -0.892632C2.89007 -0.820881 2.72958 -0.714996 2.59395 -0.580208L3.29887 0.129085ZM3.44397 0.0330186L3.82236 0.958669C3.75443 0.986434 3.68177 1.00044 3.60861 0.999989L3.61482 8.57909e-06L3.62103 -0.999972C3.43072 -1.00115 3.24196 -0.964723 3.06559 -0.892632L3.44397 0.0330186ZM3.61482 8.57909e-06V1.00001C3.46761 1.00001 3.3262 0.941556 3.22185 0.837202L3.92896 0.130096L4.63606 -0.577011C4.36508 -0.847994 3.99767 -0.999991 3.61482 -0.999991V8.57909e-06ZM3.92896 0.130096L3.22185 0.837202C3.11777 0.733124 3.05911 0.591824 3.05911 0.444231H4.05911H5.05911C5.05911 0.0609875 4.90677 -0.306303 4.63606 -0.577011L3.92896 0.130096ZM4.05911 0.444231H3.05911C3.05911 1.34371 2.84829 1.59369 2.79403 1.64499C2.73716 1.69874 2.61887 1.75939 2.28201 1.75939V2.75939V3.75939C2.77296 3.75939 3.54322 3.68895 4.16795 3.09837C4.79528 2.50533 5.05911 1.59773 5.05911 0.444231H4.05911ZM2.28201 2.75939V1.75939C2.1375 1.75939 1.45424 1.71385 0.948657 2.25293C0.497792 2.73366 0.399029 3.44466 0.399029 4.18044H1.39903H2.39903C2.39903 3.87033 2.42434 3.69082 2.44738 3.59673C2.47008 3.50403 2.47786 3.54603 2.40746 3.62109C2.37141 3.65954 2.32674 3.69361 2.27763 3.71943C2.23043 3.74425 2.19164 3.75491 2.17182 3.75917C2.15396 3.76302 2.15013 3.76192 2.17123 3.76083C2.19488 3.75961 2.22337 3.75939 2.28201 3.75939V2.75939ZM1.39903 4.18044L0.399048 4.18667C0.398591 4.11317 0.412721 4.04026 0.440682 3.97216L1.36575 4.35196L2.29082 4.73176C2.36345 4.55486 2.4002 4.36533 2.39901 4.17421L1.39903 4.18044ZM1.36575 4.35196L0.440682 3.97216C0.468605 3.90415 0.509786 3.84228 0.561835 3.79023L1.26894 4.49734L1.97605 5.20445C2.11126 5.06923 2.21822 4.90857 2.29082 4.73176L1.36575 4.35196ZM1.26894 4.49734L0.561835 3.79023C0.61419 3.73788 0.676083 3.69684 0.743692 3.66908L1.1235 4.59415L1.5033 5.51921C1.67971 5.44679 1.84053 5.33997 1.97605 5.20445L1.26894 4.49734ZM1.1235 4.59415L0.743692 3.66908C0.81166 3.64117 0.884623 3.62699 0.958275 3.62745L0.952045 4.62743L0.945814 5.62741C1.13708 5.6286 1.32653 5.59179 1.5033 5.51921L1.1235 4.59415ZM7.94704 3.08772L7.94702 2.08772C8.09319 2.08771 8.23334 2.14557 8.33687 2.24847L7.63196 2.95776L6.92705 3.66706C7.19809 3.93643 7.56473 4.08772 7.94706 4.08772L7.94704 3.08772ZM7.63196 2.95776L8.33687 2.24847C8.44051 2.35147 8.49914 2.49123 8.50004 2.63725L7.50006 2.64343L6.50007 2.6496C6.50243 3.03178 6.6559 3.39759 6.92705 3.66706L7.63196 2.95776ZM7.50006 2.64343H8.50006V0.894022H7.50006H6.50006V2.64343H7.50006ZM7.50006 0.894022H8.50006C8.50006 1.04049 8.4419 1.1812 8.33806 1.28504L7.63095 0.577933L6.92384 -0.129174C6.65234 0.142329 6.50006 0.510438 6.50006 0.894022H7.50006ZM7.63095 0.577933L8.33806 1.28504C8.23449 1.38861 8.09389 1.44697 7.94704 1.44697V0.446971V-0.553029C7.56307 -0.553029 7.19507 -0.400404 6.92384 -0.129174L7.63095 0.577933ZM7.94704 0.446971V1.44697C7.80018 1.44697 7.65959 1.3886 7.55602 1.28504L8.26313 0.577933L8.97024 -0.129174C8.69901 -0.400403 8.33101 -0.553029 7.94704 -0.553029V0.446971ZM8.26313 0.577933L7.55602 1.28504C7.45246 1.18148 7.39409 1.04088 7.39409 0.894022H8.39409H9.39409C9.39409 0.510051 9.24146 0.142055 8.97024 -0.129174L8.26313 0.577933ZM8.39409 0.894022H7.39409V2.65724H8.39409H9.39409V0.894022H8.39409ZM8.39409 2.65724L7.39478 2.6202C7.40009 2.47685 7.46082 2.34149 7.56376 2.24236L8.2574 2.96268L8.95104 3.683C9.22073 3.4233 9.37952 3.06895 9.39341 2.69427L8.39409 2.65724ZM8.2574 2.96268L7.56376 2.24236C7.66682 2.14312 7.80444 2.08762 7.94773 2.08772L7.94704 3.08772L7.94635 4.08772C8.32113 4.08797 8.68124 3.94281 8.95104 3.683L8.2574 2.96268ZM9.54196 3.08772L9.53575 2.08774C9.60891 2.08729 9.68157 2.1013 9.74949 2.12906L9.37111 3.05471L8.99273 3.98037C9.16909 4.05246 9.35786 4.08889 9.54817 4.08771L9.54196 3.08772ZM9.37111 3.05471L9.74949 2.12906C9.81718 2.15673 9.87884 2.19754 9.93092 2.24929L9.226 2.95858L8.52109 3.66787C8.65626 3.80221 8.81661 3.90837 8.99273 3.98037L9.37111 3.05471ZM9.226 2.95858L9.93092 2.24929C9.9831 2.30115 10.0243 2.36259 10.0523 2.42997L9.12899 2.81408L8.2057 3.19818C8.27873 3.37372 8.38582 3.53344 8.52109 3.66787L9.226 2.95858ZM9.12899 2.81408L10.0523 2.42997C10.0807 2.49822 10.095 2.57083 10.095 2.64345L9.09497 2.64344L8.09497 2.64342C8.09497 2.83319 8.13231 3.02177 8.2057 3.19818L9.12899 2.81408ZM9.09497 2.64344H10.095V0.894031H9.09497H8.09497V2.64344H9.09497ZM9.09497 0.894031L10.095 0.8878C10.0954 0.961307 10.0813 1.03421 10.0533 1.10232L9.12825 0.722513L8.20319 0.342709C8.13056 0.519612 8.0938 0.709143 8.09499 0.900262L9.09497 0.894031ZM9.12825 0.722513L10.0533 1.10232C10.0256 1.16992 9.98452 1.23182 9.93217 1.28417L9.22506 0.577066L8.51795 -0.130041C8.38243 0.00548178 8.27561 0.166303 8.20319 0.342709L9.12825 0.722513ZM9.22506 0.577066L9.93217 1.28417C9.88012 1.33622 9.81825 1.3774 9.75024 1.40533L9.37044 0.480259L8.99064 -0.444808C8.81383 -0.372216 8.65317 -0.265255 8.51795 -0.130041L9.22506 0.577066ZM9.37044 0.480259L9.75024 1.40533C9.68214 1.43329 9.60923 1.44742 9.53573 1.44696L9.54196 0.446979L9.54819 -0.553001C9.35707 -0.554192 9.16754 -0.51744 8.99064 -0.444808L9.37044 0.480259ZM9.54196 0.446979L9.54198 1.44698C9.46859 1.44698 9.39604 1.43246 9.3285 1.40436L9.7126 0.481067L10.0967 -0.442222C9.921 -0.515317 9.73248 -0.553024 9.54194 -0.553021L9.54196 0.446979ZM9.7126 0.481067L9.3285 1.40436C9.26112 1.37633 9.19967 1.33517 9.14781 1.28299L9.8571 0.578077L10.5664 -0.126837C10.432 -0.262109 10.2722 -0.369194 10.0967 -0.442222L9.7126 0.481067ZM9.8571 0.578077L9.14781 1.28299C9.0959 1.23076 9.05511 1.16898 9.02752 1.1015L9.95317 0.723119L10.8788 0.344739C10.8069 0.168818 10.7009 0.00848727 10.5664 -0.126837L9.8571 0.578077ZM9.95317 0.723119L9.02752 1.1015C8.99999 1.03416 8.98581 0.961615 8.98627 0.88782L9.98625 0.894031L10.9862 0.900242C10.9874 0.709301 10.9507 0.520515 10.8788 0.344739L9.95317 0.723119ZM9.98625 0.894031H8.98625V2.65725H9.98625H10.9862V0.894031H9.98625ZM9.98625 2.65725L8.98673 2.62619C8.99122 2.48155 9.05189 2.34466 9.15544 2.24432L9.85131 2.96249L10.5472 3.68066C10.8166 3.41961 10.9741 3.06377 10.9858 2.6883L9.98625 2.65725ZM9.85131 2.96249L9.15544 2.24432C9.25904 2.14394 9.39779 2.08766 9.54244 2.08772L9.54196 3.08772L9.54148 4.08772C9.91707 4.08791 10.2777 3.94175 10.5472 3.68066L9.85131 2.96249ZM11.2197 7.19087V6.19087H6.25281V7.19087V8.19087H11.2197V7.19087ZM6.25281 7.19087L6.25898 6.19089C6.405 6.19179 6.54476 6.25041 6.64776 6.35405L5.93847 7.05896L5.22918 7.76388C5.49865 8.03502 5.86445 8.18849 6.24663 8.19085L6.25281 7.19087ZM5.93847 7.05896L6.64776 6.35405C6.75066 6.45759 6.80852 6.59774 6.80852 6.74391L5.80852 6.74389L4.80852 6.74387C4.80851 7.12619 4.9598 7.49283 5.22918 7.76388L5.93847 7.05896ZM5.80852 6.74389H6.80852V1.79081H5.80852H4.80852V6.74389H5.80852ZM5.80852 1.79081L6.80852 1.79079C6.80852 1.9368 6.75077 2.07693 6.64776 2.18058L5.93847 1.47567L5.22918 0.770752C4.95969 1.04191 4.80851 1.40867 4.80852 1.79083L5.80852 1.79081ZM5.93847 1.47567L6.64776 2.18058C6.54477 2.28422 6.40501 2.34284 6.25898 2.34374L6.25281 1.34376L6.24663 0.343779C5.86445 0.346138 5.49865 0.499609 5.22918 0.770752L5.93847 1.47567ZM6.25281 1.34376V2.34376H11.2197V1.34376V0.34376H6.25281V1.34376ZM11.2197 1.34376L11.2136 2.34374C11.0689 2.34286 10.9303 2.28502 10.8279 2.18257L11.535 1.47546L12.2421 0.768357C11.9723 0.498559 11.6071 0.346111 11.2258 0.343779L11.2197 1.34376ZM11.535 1.47546L10.8279 2.18257C10.7253 2.08001 10.6676 1.94141 10.6667 1.79693L11.6667 1.79081L12.6667 1.7847C12.6643 1.40355 12.512 1.03827 12.2421 0.768357L11.535 1.47546ZM11.6667 1.79081H10.6667V6.74389H11.6667H12.6667V1.79081H11.6667ZM11.6667 6.74389L10.6667 6.73777C10.6676 6.59313 10.7254 6.45451 10.8279 6.35206L11.535 7.05917L12.2421 7.76627C12.5119 7.49648 12.6643 7.13131 12.6667 6.75L11.6667 6.74389ZM11.535 7.05917L10.8279 6.35206C10.9303 6.24961 11.0689 6.19177 11.2136 6.19089L11.2197 7.19087L11.2258 8.19085C11.6071 8.18852 11.9723 8.03607 12.2421 7.76627L11.535 7.05917ZM6.7136 6.29683V7.29683H10.7726V6.29683V5.29683H6.7136V6.29683ZM10.7726 6.29683H11.7726V2.2378H10.7726H9.77264V6.29683H10.7726ZM10.7726 2.2378V1.2378H6.71636V2.2378V3.2378H10.7726V2.2378ZM6.71636 2.2378L5.71636 2.23712L5.7136 6.29615L6.7136 6.29683L7.7136 6.29751L7.71636 2.23848L6.71636 2.2378ZM9.42887 4.35424V3.35424H8.19268V4.35424V5.35424H9.42887V4.35424ZM8.19268 4.35424V3.35424C8.33915 3.35424 8.47986 3.4124 8.58369 3.51624L7.87659 4.22334L7.16948 4.93045C7.44098 5.20195 7.80909 5.35424 8.19268 5.35424V4.35424ZM7.87659 4.22334L8.58369 3.51624C8.68726 3.6198 8.74562 3.7604 8.74562 3.90726H7.74562H6.74562C6.74562 4.29122 6.89825 4.65922 7.16948 4.93045L7.87659 4.22334ZM7.74562 3.90726L8.7456 3.90103C8.74606 3.97453 8.73193 4.04744 8.70397 4.11554L7.7789 3.73574L6.85384 3.35593C6.78121 3.53284 6.74445 3.72237 6.74564 3.91349L7.74562 3.90726ZM7.7789 3.73574L8.70397 4.11554C8.67605 4.18355 8.63487 4.24541 8.58282 4.29746L7.87571 3.59036L7.1686 2.88325C7.03339 3.01847 6.92643 3.17913 6.85384 3.35593L7.7789 3.73574ZM7.87571 3.59036L8.58282 4.29746C8.53092 4.34936 8.46917 4.39055 8.40096 4.41855L8.02116 3.49348L7.64135 2.56842C7.46434 2.64109 7.30367 2.74819 7.1686 2.88325L7.87571 3.59036ZM8.02116 3.49348L8.40096 4.41855C8.33286 4.44651 8.25995 4.46064 8.18645 4.46018L8.19268 3.4602L8.19891 2.46022C8.00779 2.45903 7.81826 2.49578 7.64135 2.56842L8.02116 3.49348ZM8.19268 3.4602V4.4602H9.42887V3.4602V2.4602H8.19268V3.4602ZM9.42887 3.4602V4.4602C9.28201 4.4602 9.14142 4.40184 9.03785 4.29827L9.74496 3.59117L10.4521 2.88406C10.1808 2.61283 9.81285 2.4602 9.42887 2.4602V3.4602ZM9.74496 3.59117L9.03785 4.29827C8.93402 4.19444 8.87586 4.05373 8.87586 3.90726H9.87586H10.8759C10.8759 3.52367 10.7236 3.15556 10.4521 2.88406L9.74496 3.59117ZM9.87586 3.90726L8.87588 3.90114C8.87676 3.7565 8.9346 3.61788 9.03705 3.51543L9.74415 4.22254L10.4513 4.92964C10.7211 4.65984 10.8735 4.29468 10.8758 3.91337L9.87586 3.90726ZM9.74415 4.22254L9.03705 3.51543C9.13949 3.41298 9.27812 3.35514 9.42276 3.35426L9.42887 4.35424L9.43499 5.35422C9.81629 5.35189 10.1815 5.19944 10.4513 4.92964L9.74415 4.22254ZM8.43545 5.83328L8.4322 4.83329C8.54842 4.83291 8.66184 4.86826 8.75713 4.93436L8.18714 5.75601L7.61715 6.57766C7.85826 6.74493 8.14501 6.83423 8.43871 6.83328L8.43545 5.83328ZM8.18714 5.75601L8.74481 4.92595C8.80472 4.9662 8.85656 5.01811 8.89706 5.07909L8.06399 5.63226L7.23092 6.18543C7.33642 6.3443 7.47202 6.48029 7.62946 6.58607L8.18714 5.75601ZM8.06399 5.63226L8.89706 5.07909C8.93739 5.13982 8.9652 5.20774 8.97911 5.27886L7.9977 5.47078L7.01629 5.6627C7.05275 5.84914 7.12559 6.0268 7.23092 6.18543L8.06399 5.63226ZM7.9977 5.47078L8.97911 5.27886C8.99308 5.35031 8.99279 5.42365 8.97838 5.49476L7.9983 5.29616L7.01822 5.09756C6.98048 5.28384 6.97976 5.47591 7.01629 5.6627L7.9977 5.47078ZM7.9983 5.29616L8.97838 5.49476C8.96402 5.56565 8.93577 5.63341 8.89495 5.69398L8.06567 5.13515L7.23639 4.57632C7.12991 4.73434 7.05593 4.9115 7.01822 5.09756L7.9983 5.29616ZM8.06567 5.13515L8.89605 5.69236L9.88669 4.21606L9.05631 3.65886L8.22594 3.10165L7.2353 4.57794L8.06567 5.13515ZM9.05631 3.65886L9.88581 4.21737C9.80458 4.33801 9.67919 4.42129 9.53733 4.44966L9.34121 3.46908L9.1451 2.4885C8.77069 2.56338 8.4405 2.78299 8.22682 3.10034L9.05631 3.65886ZM9.34121 3.46908L9.53733 4.44966C9.39536 4.47806 9.24759 4.44934 9.1263 4.36929L9.67717 3.5347L10.228 2.70011C9.90884 2.48942 9.51961 2.4136 9.1451 2.4885L9.34121 3.46908ZM9.67717 3.5347L9.1195 4.36476C9.05867 4.32389 9.00706 4.27174 8.96719 4.21169L9.80025 3.65852L10.6333 3.10535C10.5284 2.9474 10.3932 2.81104 10.2349 2.70464L9.67717 3.5347ZM9.80025 3.65852L8.96719 4.21169C8.92727 4.15157 8.89925 4.08376 8.8852 4.01192L9.86661 3.82L10.848 3.62808C10.8114 3.44091 10.7382 3.26336 10.6333 3.10535L9.80025 3.65852ZM9.86661 3.82L8.8852 4.01192C8.87123 3.94045 8.87152 3.86705 8.88593 3.79595L9.86601 3.99455L10.8461 4.19315C10.8838 4.00688 10.8846 3.81487 10.848 3.62808L9.86661 3.82ZM9.86601 3.99455L8.88593 3.79595C8.90043 3.72436 8.92888 3.6567 8.96929 3.59673L9.79857 4.15556L10.6279 4.71439C10.7339 4.55697 10.8082 4.37991 10.8461 4.19315L9.86601 3.99455ZM9.79857 4.15556L8.96842 3.59802L7.97508 5.07708L8.80524 5.63461L9.63539 6.19215L10.6287 4.71309L9.79857 4.15556ZM8.80524 5.63461L7.97375 5.07907C8.02409 5.00372 8.0921 4.94198 8.17179 4.89917L8.6451 5.78006L9.11842 6.66095C9.32704 6.54886 9.50506 6.38722 9.63672 6.19016L8.80524 5.63461ZM8.6451 5.78006L8.17179 4.89917C8.25169 4.85624 8.34076 4.83368 8.43113 4.83329L8.43545 5.83328L8.43978 6.83327C8.67652 6.83225 8.90958 6.77317 9.11842 6.66095L8.6451 5.78006ZM5.03587 11.6638V10.6638H2.11096V11.6638V12.6638H5.03587V11.6638ZM2.11096 11.6638L2.10994 10.6638C2.03484 10.6639 1.96079 10.648 1.89276 10.6172L1.48094 11.5285L1.06912 12.4398C1.39701 12.5879 1.75261 12.6642 2.11199 12.6638L2.11096 11.6638ZM1.48094 11.5285L1.89276 10.6172C1.8246 10.5864 1.76372 10.5414 1.71425 10.4851L0.96302 11.1451L0.211786 11.8051C0.449085 12.0752 0.741359 12.2916 1.06912 12.4398L1.48094 11.5285ZM0.96302 11.1451L1.70999 10.4802C1.66067 10.4248 1.6237 10.3594 1.60165 10.2881L0.646392 10.5839L-0.308865 10.8797C-0.202397 11.2236 -0.0235116 11.5408 0.216053 11.81L0.96302 11.1451ZM0.646392 10.5839L1.60165 10.2881C1.57964 10.2171 1.57313 10.1421 1.58252 10.0684L0.590544 9.94198L-0.401432 9.81555C-0.44697 10.1729 -0.41537 10.5357 -0.308865 10.8797L0.646392 10.5839ZM0.590544 9.94198L1.58257 10.068C1.61619 9.80327 1.71267 9.55052 1.86393 9.33083L1.04029 8.76372L0.216648 8.19661C-0.115745 8.67936 -0.327653 9.23464 -0.401487 9.81599L0.590544 9.94198ZM1.04029 8.76372L1.86208 9.33351L3.01002 7.67789L2.18824 7.10809L1.36645 6.5383L0.218503 8.19393L1.04029 8.76372ZM2.18824 7.10809L3.13551 6.78768L2.75192 5.65361L1.80464 5.97402L0.857365 6.29444L1.24096 7.4285L2.18824 7.10809ZM1.80464 5.97402L2.74931 5.646C2.78147 5.73861 2.78866 5.83793 2.7703 5.93401L1.78807 5.74632L0.805842 5.55863C0.758424 5.80679 0.77703 6.06318 0.859976 6.30205L1.80464 5.97402ZM1.78807 5.74632L2.7703 5.93401C2.75192 6.03019 2.70858 6.11985 2.64461 6.194L1.88744 5.54078L1.13027 4.88756C0.965164 5.07894 0.853281 5.31037 0.805842 5.55863L1.78807 5.74632ZM1.88744 5.54078L2.64757 6.19056C2.58495 6.26381 2.50427 6.3196 2.41337 6.35232L2.07465 5.41144L1.73593 4.47055C1.49989 4.55552 1.29017 4.70049 1.12731 4.89101L1.88744 5.54078ZM2.07465 5.41144L2.41337 6.35232C2.32255 6.38502 2.22482 6.39349 2.1298 6.37694L2.30135 5.39177L2.47289 4.40659C2.22589 4.36358 1.97191 4.3856 1.73593 4.47055L2.07465 5.41144ZM2.30135 5.39177L2.12133 6.37543C2.71039 6.48323 3.30466 6.56045 3.90173 6.60677L3.97907 5.60977L4.05641 4.61276C3.52823 4.57179 3.00249 4.50347 2.48136 4.4081L2.30135 5.39177ZM3.97907 5.60977L4.0027 6.60949C4.39651 6.60018 4.78404 6.50845 5.14032 6.34008L4.71304 5.43596L4.28577 4.53184C4.18239 4.58069 4.06988 4.60734 3.95544 4.61005L3.97907 5.60977ZM4.71304 5.43596L5.17639 6.32214C5.07809 6.37353 4.96659 6.39418 4.85642 6.3814L4.97167 5.38806L5.08692 4.39472C4.7986 4.36127 4.50691 4.41529 4.2497 4.54978L4.71304 5.43596ZM4.97167 5.38806L4.85642 6.3814C4.74645 6.36864 4.64265 6.32312 4.55857 6.25044L5.21251 5.4939L5.86644 4.73735C5.64669 4.5474 5.37502 4.42815 5.08692 4.39472L4.97167 5.38806ZM5.21251 5.4939L4.55555 6.24782C4.47153 6.17461 4.41164 6.07778 4.38364 5.97003L5.35149 5.7185L6.31933 5.46697C6.24603 5.18492 6.08926 4.93149 5.86946 4.73997L5.21251 5.4939ZM5.35149 5.7185L4.38364 5.97003C4.35559 5.8621 4.36084 5.74833 4.39852 5.64365L5.33943 5.98231L6.28033 6.32097C6.379 6.04684 6.39268 5.74919 6.31933 5.46697L5.35149 5.7185ZM5.33943 5.98231L4.39763 5.64612L3.99478 6.77466L4.93657 7.11085L5.87836 7.44705L6.28122 6.3185L5.33943 5.98231ZM4.93657 7.11085L4.11733 7.68431L5.27626 9.33994L6.09549 8.76648L6.91473 8.19302L5.7558 6.5374L4.93657 7.11085ZM6.09549 8.76648L5.27665 9.34049C5.42995 9.55918 5.52774 9.81193 5.56158 10.0769L6.55353 9.95027L7.54547 9.8236C7.47054 9.23678 7.25396 8.67696 6.91434 8.19247L6.09549 8.76648ZM6.55353 9.95027L5.56157 10.0768C5.57112 10.1517 5.56461 10.2277 5.54249 10.2999L6.49856 10.593L7.45462 10.8862C7.56001 10.5425 7.59098 10.1803 7.54549 9.82373L6.55353 9.95027ZM6.49856 10.593L5.54249 10.2999C5.52032 10.3722 5.48306 10.4388 5.43329 10.4953L6.18381 11.1561L6.93433 11.817C7.172 11.5471 7.34928 11.2297 7.45462 10.8862L6.49856 10.593ZM6.18381 11.1561L5.43897 10.4889C5.38926 10.5444 5.32826 10.5887 5.25997 10.6189L5.66448 11.5335L6.06898 12.448C6.39651 12.3031 6.68958 12.0903 6.92865 11.8234L6.18381 11.1561ZM5.66448 11.5335L5.25997 10.6189C5.19182 10.6491 5.11794 10.6644 5.04329 10.6639L5.03587 11.6638L5.02845 12.6638C5.38659 12.6665 5.74131 12.5929 6.06898 12.448L5.66448 11.5335ZM2.88637 6.38793L1.93969 6.71011L2.16039 7.35859L3.10706 7.03641L4.05374 6.71423L3.83304 6.06575L2.88637 6.38793ZM3.10706 7.03641L2.15913 7.35489C2.13149 7.27262 2.12339 7.18448 2.13606 7.09765L3.12559 7.24195L4.11512 7.38626C4.14792 7.16136 4.12707 6.93246 4.05499 6.71794L3.10706 7.03641ZM3.12559 7.24195L2.13606 7.09765C2.14867 7.01114 2.18146 6.92903 2.23163 6.85781L3.04913 7.43375L3.86662 8.00968C3.99715 7.8244 4.08237 7.61083 4.11512 7.38626L3.12559 7.24195ZM3.04913 7.43375L2.22746 6.86377L0.952666 8.7015L1.77433 9.27147L2.59599 9.84144L3.87079 8.00372L3.04913 7.43375ZM1.77433 9.27147L0.948934 8.70691C0.702324 9.06746 0.544208 9.48114 0.487512 9.91434L1.47906 10.0441L2.4706 10.1739C2.48646 10.0527 2.5307 9.93695 2.59972 9.83603L1.77433 9.27147ZM1.47906 10.0441L0.489673 9.89877C0.454884 10.1356 0.472795 10.3772 0.542155 10.6063L1.49927 10.3166L2.45638 10.0269C2.47232 10.0795 2.47643 10.1351 2.46844 10.1894L1.47906 10.0441ZM1.49927 10.3166L0.542155 10.6063C0.611509 10.8354 0.730605 11.0465 0.890911 11.2243L1.6336 10.5546L2.37628 9.88498C2.41311 9.92583 2.44045 9.97426 2.45638 10.0269L1.49927 10.3166ZM1.6336 10.5546L0.874027 11.205C1.02764 11.3844 1.21839 11.528 1.43284 11.6259L1.84823 10.7162L2.26362 9.80659C2.31319 9.82923 2.35746 9.86249 2.39317 9.9042L1.6336 10.5546ZM1.84823 10.7162L1.43284 11.6259C1.64761 11.724 1.88105 11.7739 2.11688 11.7725L2.11096 10.7726L2.10505 9.77257C2.15962 9.77225 2.21374 9.78382 2.26362 9.80659L1.84823 10.7162ZM2.11096 10.7726V11.7726H5.03587V10.7726V9.77256H2.11096V10.7726ZM5.03587 10.7726L5.02995 11.7725C5.26578 11.7739 5.49923 11.724 5.71399 11.6259L5.2986 10.7162L4.88322 9.80659C4.93309 9.78382 4.98722 9.77225 5.04178 9.77257L5.03587 10.7726ZM5.2986 10.7162L5.71399 11.6259C5.92845 11.528 6.11919 11.3844 6.27281 11.205L5.51324 10.5546L4.75366 9.9042C4.78938 9.86249 4.83364 9.82923 4.88322 9.80659L5.2986 10.7162ZM5.51324 10.5546L6.25338 11.2271C6.41318 11.0512 6.53238 10.8421 6.60234 10.6148L5.64656 10.3207L4.69078 10.0266C4.70731 9.9729 4.73544 9.92362 4.77309 9.88217L5.51324 10.5546ZM5.64656 10.3207L6.60234 10.6148C6.6723 10.3874 6.6912 10.1476 6.65792 9.91234L5.66778 10.0524L4.67763 10.1924C4.66979 10.137 4.67423 10.0804 4.69078 10.0266L5.64656 10.3207ZM5.66778 10.0524L6.65938 9.92307C6.60186 9.48208 6.43846 9.06143 6.18293 8.69717L5.36429 9.27147L4.54564 9.84577C4.61558 9.94547 4.6604 10.0607 4.67618 10.1817L5.66778 10.0524ZM5.36429 9.27147L6.18206 8.69593L4.89062 6.86096L4.07285 7.43651L3.25508 8.01205L4.54652 9.84701L5.36429 9.27147ZM4.07285 7.43651L4.89055 6.86088C4.94157 6.93334 4.97447 7.01711 4.98637 7.10514L3.99537 7.23905L3.00438 7.37297C3.03549 7.60316 3.12155 7.82237 3.25514 8.01214L4.07285 7.43651ZM3.99537 7.23905L4.98637 7.10514C4.99828 7.19331 4.98874 7.28279 4.95884 7.36607L4.01767 7.02813L3.07651 6.69018C2.99812 6.90847 2.97326 7.14264 3.00438 7.37297L3.99537 7.23905ZM4.01767 7.02813L4.96154 7.35846L5.15468 6.80658L4.21081 6.47625L3.26695 6.14592L3.07381 6.6978L4.01767 7.02813ZM4.21081 6.47625L4.15577 5.47777C4.11523 5.48 4.07465 5.48 4.03412 5.47777L3.97907 6.47625L3.92402 7.47473C4.0379 7.48101 4.15199 7.48101 4.26586 7.47473L4.21081 6.47625ZM3.97907 6.47625L4.00107 5.47649C3.67454 5.46931 3.34869 5.44296 3.02518 5.39761L2.88637 6.38793L2.74755 7.37825C3.14844 7.43444 3.55229 7.4671 3.95707 7.47601L3.97907 6.47625ZM6.77155 1.19753L6.77511 0.197534C6.83474 0.197747 6.89454 0.207749 6.95203 0.227621L6.62529 1.17274L6.29855 2.11785C6.45014 2.17026 6.60878 2.19695 6.76798 2.19752L6.77155 1.19753ZM6.62529 1.17274L6.95003 0.226933C6.39463 0.0362369 5.81129 -0.0604576 5.22398 -0.0590728L5.22633 0.940924L5.22869 1.94092C5.59334 1.94006 5.95558 2.00009 6.30055 2.11854L6.62529 1.17274ZM5.22633 0.940924V-0.0590756C5.37319 -0.0590756 5.51379 -0.00071007 5.61735 0.102855L4.91024 0.809962L4.20314 1.51707C4.47437 1.7883 4.84236 1.94092 5.22633 1.94092V0.940924ZM4.91024 0.809962L5.61735 0.102855C5.72092 0.206421 5.77928 0.347017 5.77928 0.493873H4.77928H3.77928C3.77928 0.877842 3.93191 1.24584 4.20314 1.51707L4.91024 0.809962ZM4.77928 0.493873L5.77926 0.500045C5.77836 0.646233 5.71962 0.786013 5.6161 0.888895L4.91119 0.179602L4.20627 -0.52969C3.93524 -0.260335 3.78166 0.105356 3.7793 0.4877L4.77928 0.493873ZM4.91119 0.179602L5.6161 0.888895C5.51245 0.991905 5.37232 1.04965 5.22631 1.04965L5.22633 0.0496501L5.22635 -0.95035C4.84418 -0.950357 4.47743 -0.799174 4.20627 -0.52969L4.91119 0.179602ZM5.22633 0.0496501L5.22899 1.04965C5.69324 1.04841 6.15449 1.12379 6.59422 1.27273L6.91504 0.325588L7.23585 -0.621554C6.58777 -0.841071 5.90794 -0.952162 5.22368 -0.950346L5.22633 0.0496501ZM6.91504 0.325588L6.58148 1.26832C6.44518 1.22009 6.33323 1.12009 6.27002 0.989858L7.16962 0.553156L8.06923 0.116454C7.90272 -0.226547 7.60787 -0.490024 7.2486 -0.617142L6.91504 0.325588ZM7.16962 0.553156L6.27002 0.989858C6.20687 0.859774 6.19745 0.710035 6.24392 0.572962L7.19098 0.894036L8.13803 1.21511C8.26044 0.854041 8.23566 0.459313 8.06923 0.116454L7.16962 0.553156ZM7.19098 0.894036L6.24529 0.56897C6.28222 0.461512 6.3514 0.368367 6.44303 0.302056L7.02929 1.11217L7.61556 1.92229C7.85734 1.74732 8.03948 1.50184 8.13667 1.2191L7.19098 0.894036ZM7.02929 1.11217L6.44303 0.302056C6.5349 0.235567 6.64506 0.199108 6.75837 0.197615L6.77155 1.19753L6.78472 2.19744C7.08336 2.19351 7.37354 2.09744 7.61556 1.92229L7.02929 1.11217ZM1.02648 8.00493L1.02272 7.00494C1.12265 7.00456 1.22121 7.03119 1.30778 7.0824L0.798645 7.94309L0.289507 8.80377C0.51404 8.93659 0.770023 9.0059 1.03025 9.00492L1.02648 8.00493ZM0.798645 7.94309L1.30778 7.0824C1.39406 7.13344 1.46494 7.20687 1.51289 7.29493L0.634672 7.77319L-0.24355 8.25144C-0.118934 8.48027 0.0652657 8.67112 0.289507 8.80377L0.798645 7.94309ZM0.634672 7.77319L1.51298 7.29509C1.17586 6.67578 0.999481 5.98178 1 5.27667L1.42117e-06 5.27593L-0.999998 5.2752C-1.00077 6.31487 -0.740696 7.33814 -0.243635 8.25128L0.634672 7.77319ZM1.42117e-06 5.27593H1C1 5.42279 0.941636 5.56339 0.838071 5.66695L0.130964 4.95984L-0.576143 4.25274C-0.847373 4.52397 -0.999999 4.89196 -0.999999 5.27593H1.42117e-06ZM0.130964 4.95984L0.838071 5.66695C0.734233 5.77079 0.593523 5.82895 0.447053 5.82895V4.82895V3.82895C0.0634687 3.82895 -0.30464 3.98124 -0.576143 4.25274L0.130964 4.95984ZM0.447053 4.82895V5.82895C0.300582 5.82895 0.159872 5.77079 0.0560345 5.66695L0.763141 4.95984L1.47025 4.25274C1.19875 3.98124 0.830637 3.82895 0.447053 3.82895V4.82895ZM0.763141 4.95984L0.0560345 5.66695C-0.0477993 5.56312 -0.105962 5.42241 -0.105962 5.27593H0.894038H1.89404C1.89404 4.89234 1.74175 4.52424 1.47025 4.25274L0.763141 4.95984ZM0.894038 5.27593L-0.105962 5.27653C-0.105429 6.16507 0.116147 7.03949 0.538688 7.82105L1.41836 7.34547L2.29803 6.86989C2.03321 6.38006 1.89437 5.83209 1.89404 5.27533L0.894038 5.27593ZM1.41836 7.34547L0.540869 7.82507C0.505727 7.76077 0.483639 7.69013 0.475895 7.61724L1.4703 7.5116L2.4647 7.40596C2.44458 7.21654 2.38719 7.03299 2.29585 6.86587L1.41836 7.34547ZM1.4703 7.5116L0.475895 7.61724C0.468127 7.54411 0.474951 7.47043 0.495735 7.4004L1.4544 7.68493L2.41307 7.96947C2.46719 7.78711 2.48485 7.5956 2.4647 7.40596L1.4703 7.5116ZM1.4544 7.68493L0.495735 7.4004C0.516551 7.33027 0.551062 7.2648 0.597396 7.20784L1.37316 7.83887L2.14891 8.4699C2.26919 8.32204 2.35891 8.15194 2.41307 7.96947L1.4544 7.68493ZM1.37316 7.83887L0.597396 7.20784C0.643849 7.15073 0.700937 7.10367 0.765196 7.0691L1.23896 7.94976L1.71272 8.83041C1.88017 8.74033 2.02852 8.61791 2.14891 8.4699L1.37316 7.83887ZM1.23896 7.94976L0.744571 7.08052C0.833268 7.03007 0.933605 7.00407 1.03536 7.00497L1.02648 8.00493L1.0176 9.00489C1.26826 9.00712 1.51521 8.94306 1.73335 8.819L1.23896 7.94976ZM7.19369 10.0827L7.204 9.0828C7.31246 9.08392 7.41816 9.11691 7.50792 9.17756L6.94807 10.0061L6.38821 10.8347C6.62319 10.9935 6.89968 11.0798 7.18338 11.0827L7.19369 10.0827ZM6.94807 10.0061L7.50792 9.17756C7.5976 9.23815 7.66765 9.32383 7.70919 9.42414L6.78531 9.80681L5.86142 10.1895C5.97003 10.4517 6.15332 10.676 6.38821 10.8347L6.94807 10.0061ZM6.78531 9.80681L7.69489 9.39128C7.72526 9.45776 7.74234 9.52994 7.7448 9.6037L6.74536 9.63704L5.74591 9.67038C5.75229 9.8615 5.79656 10.0491 5.87573 10.2223L6.78531 9.80681ZM6.74536 9.63704L7.7448 9.6037C7.74727 9.67765 7.73498 9.7508 7.70917 9.81898L6.77392 9.46498L5.83867 9.11099C5.7713 9.28899 5.73953 9.47907 5.74591 9.67038L6.74536 9.63704ZM6.77392 9.46498L7.70917 9.81898C7.68327 9.88741 7.644 9.95029 7.59337 10.0039L6.86648 9.31711L6.1396 8.63035C6.00833 8.76929 5.90615 8.93273 5.83867 9.11099L6.77392 9.46498ZM6.86648 9.31711L7.59337 10.0039C7.54278 10.0574 7.48221 10.1002 7.41531 10.13L7.00883 9.21633L6.60236 8.30267C6.42816 8.38016 6.27083 8.49146 6.1396 8.63035L6.86648 9.31711ZM7.00883 9.21633L7.41842 10.1286C8.38209 9.69594 9.19494 8.98598 9.75334 8.08934L8.90449 7.5607L8.05564 7.03206C7.70732 7.59137 7.20031 8.0342 6.59924 8.30406L7.00883 9.21633ZM8.90449 7.5607L9.75394 8.08838C9.71515 8.15082 9.66443 8.20486 9.60474 8.24746L9.0238 7.43351L8.44286 6.61957C8.28763 6.73036 8.15578 6.87087 8.05504 7.03303L8.90449 7.5607ZM9.0238 7.43351L9.60474 8.24746C9.54495 8.29013 9.47734 8.32051 9.4058 8.33687L9.18285 7.36204L8.95991 6.3872C8.77394 6.42974 8.59819 6.5087 8.44286 6.61957L9.0238 7.43351ZM9.18285 7.36204L9.4058 8.33687C9.33449 8.35318 9.26036 8.35528 9.18774 8.3428L9.35713 7.35725L9.52653 6.3717C9.33822 6.33934 9.14566 6.34472 8.95991 6.3872L9.18285 7.36204ZM9.35713 7.35725L9.18774 8.3428C9.11497 8.33029 9.04583 8.30352 8.98418 8.26441L9.51983 7.41997L10.0555 6.57553C9.8947 6.47355 9.71499 6.4041 9.52653 6.3717L9.35713 7.35725ZM9.51983 7.41997L8.99133 8.2689C8.86717 8.19161 8.77845 8.06805 8.74509 7.92502L9.71897 7.69793L10.6928 7.47084C10.6057 7.09705 10.3736 6.77356 10.0483 6.57104L9.51983 7.41997ZM9.71897 7.69793L8.74509 7.92502C8.71176 7.78205 8.73664 7.63199 8.81384 7.5077L9.66332 8.03531L10.5128 8.56292C10.715 8.23734 10.78 7.84457 10.6928 7.47084L9.71897 7.69793ZM9.66332 8.03531L8.81472 7.50628C8.37226 8.21602 7.72865 8.7781 6.9658 9.121L7.37578 10.0331L7.78577 10.9452C8.91055 10.4396 9.85953 9.61084 10.5119 8.56433L9.66332 8.03531ZM7.37578 10.0331L6.90625 9.15018C6.98162 9.1101 7.06492 9.08743 7.14996 9.0837L7.19369 10.0827L7.23742 11.0818C7.44976 11.0725 7.65745 11.0159 7.84532 10.916L7.37578 10.0331Z" fill="#AC9AB8" mask="url(#path-1-inside-1_0_45)"/>
</g>
</svg>
