<svg preserveAspectRatio="none" overflow="visible" style="display: block;" width="13.0587" height="10.3663" viewBox="0 0 13.0587 10.3663" fill="none" xmlns="http://www.w3.org/2000/svg">
<g id="user-identifier-card">
<path id="Intersect" d="M0.609363 8.00635C0.646852 8.46924 0.851879 8.90256 1.18601 9.2251C1.52014 9.54763 1.96044 9.73723 2.42436 9.75835C5.21136 9.90235 7.84736 9.90235 10.6344 9.75835C11.0983 9.73723 11.5386 9.54763 11.8727 9.2251C12.2068 8.90256 12.4119 8.46924 12.4494 8.00635C12.5952 6.12717 12.5952 4.23952 12.4494 2.36035C12.4119 1.89746 12.2068 1.46413 11.8727 1.1416C11.5386 0.819067 11.0983 0.629469 10.6344 0.608349C7.8996 0.463884 5.15912 0.463884 2.42436 0.608349C1.46436 0.658349 0.682363 1.40135 0.609363 2.36035C0.463546 4.23952 0.463546 6.12717 0.609363 8.00635Z" stroke="#AC9AB8" stroke-linecap="round" stroke-linejoin="round"/>
<path id="Vector 453" d="M8.66636 3.92535H10.1774" stroke="#AC9AB8" stroke-linecap="round" stroke-linejoin="round"/>
<path id="Vector 454" d="M8.66636 6.44135H10.1774" stroke="#AC9AB8" stroke-linecap="round" stroke-linejoin="round"/>
<path id="Vector" d="M6.75236 7.44335C6.55736 6.49235 5.80036 5.82135 4.71336 5.82135C3.62636 5.82135 2.86936 6.49135 2.67536 7.44235" stroke="#AC9AB8" stroke-linecap="round" stroke-linejoin="round"/>
<path id="Vector_2" d="M4.71336 5.82135C5.65536 5.82135 6.18536 5.29135 6.18536 4.34935C6.18536 3.40735 5.65536 2.87735 4.71336 2.87735C3.77136 2.87735 3.24136 3.40735 3.24136 4.34935C3.24136 5.29135 3.77136 5.82135 4.71336 5.82135Z" stroke="#AC9AB8" stroke-linecap="round" stroke-linejoin="round"/>
</g>
</svg>
