<svg preserveAspectRatio="none" overflow="visible" style="display: block;" width="8.16667" height="8.16667" viewBox="0 0 8.16667 8.16667" fill="none" xmlns="http://www.w3.org/2000/svg">
<path id="Combined Shape" fill-rule="evenodd" clip-rule="evenodd" d="M4.08333 3.25838L7.17086 0.170854C7.39866 -0.0569515 7.76801 -0.0569515 7.99581 0.170854C8.22362 0.39866 8.22362 0.768006 7.99581 0.995812L4.90829 4.08333L7.99581 7.17086C8.22362 7.39866 8.22362 7.76801 7.99581 7.99581C7.76801 8.22362 7.39866 8.22362 7.17086 7.99581L4.08333 4.90829L0.995812 7.99581C0.768006 8.22362 0.39866 8.22362 0.170854 7.99581C-0.0569515 7.76801 -0.0569515 7.39866 0.170854 7.17086L3.25838 4.08333L0.170854 0.995812C-0.0569515 0.768006 -0.0569515 0.39866 0.170854 0.170854C0.39866 -0.0569515 0.768006 -0.0569515 0.995812 0.170854L4.08333 3.25838Z" fill="white"/>
</svg>
